<mxfile host="app.diagrams.net" agent="Mozilla/5.0 (Windows NT 10.0; Win64; x64) AppleWebKit/537.36 (KHTML, like Gecko) Chrome/131.0.0.0 Safari/537.36 Edg/131.0.0.0" version="26.0.3">
  <diagram name="Страница — 1" id="_Q8QmrPnK1V-HpjU53Zy">
    <mxGraphModel dx="1068" dy="488" grid="1" gridSize="10" guides="1" tooltips="1" connect="1" arrows="1" fold="1" page="1" pageScale="1" pageWidth="1654" pageHeight="1169" math="0" shadow="0">
      <root>
        <mxCell id="0" />
        <mxCell id="1" parent="0" />
        <mxCell id="xvKuvBGbjbTDVPc1FOMu-1" value="Администратор&lt;div&gt;&lt;br&gt;&lt;/div&gt;" style="shape=umlActor;verticalLabelPosition=bottom;verticalAlign=top;html=1;outlineConnect=0;" parent="1" vertex="1">
          <mxGeometry x="370" y="520" width="40" height="80" as="geometry" />
        </mxCell>
        <mxCell id="xvKuvBGbjbTDVPc1FOMu-7" value="Просмотр каталога" style="ellipse;whiteSpace=wrap;html=1;" parent="1" vertex="1">
          <mxGeometry x="470" y="420" width="120" height="40" as="geometry" />
        </mxCell>
        <mxCell id="xvKuvBGbjbTDVPc1FOMu-10" value=" Управление каталогом" style="ellipse;whiteSpace=wrap;html=1;" parent="1" vertex="1">
          <mxGeometry x="530" y="560" width="120" height="40" as="geometry" />
        </mxCell>
        <mxCell id="xvKuvBGbjbTDVPc1FOMu-11" value="Читатель" style="shape=umlActor;verticalLabelPosition=bottom;verticalAlign=top;html=1;outlineConnect=0;" parent="1" vertex="1">
          <mxGeometry x="370" y="370" width="40" height="80" as="geometry" />
        </mxCell>
        <mxCell id="xvKuvBGbjbTDVPc1FOMu-14" value="" style="endArrow=none;html=1;rounded=0;entryX=0;entryY=0.5;entryDx=0;entryDy=0;" parent="1" source="xvKuvBGbjbTDVPc1FOMu-11" target="xvKuvBGbjbTDVPc1FOMu-7" edge="1">
          <mxGeometry width="50" height="50" relative="1" as="geometry">
            <mxPoint x="420" y="420" as="sourcePoint" />
            <mxPoint x="540" y="410" as="targetPoint" />
          </mxGeometry>
        </mxCell>
        <mxCell id="xvKuvBGbjbTDVPc1FOMu-16" value="" style="endArrow=none;html=1;rounded=0;entryX=0;entryY=0.5;entryDx=0;entryDy=0;" parent="1" source="xvKuvBGbjbTDVPc1FOMu-1" target="xvKuvBGbjbTDVPc1FOMu-10" edge="1">
          <mxGeometry width="50" height="50" relative="1" as="geometry">
            <mxPoint x="440" y="580" as="sourcePoint" />
            <mxPoint x="540" y="500" as="targetPoint" />
          </mxGeometry>
        </mxCell>
        <mxCell id="xvKuvBGbjbTDVPc1FOMu-21" value="включить" style="html=1;verticalAlign=bottom;endArrow=open;dashed=1;endSize=8;curved=0;rounded=0;entryX=1;entryY=0.5;entryDx=0;entryDy=0;exitX=0;exitY=0.5;exitDx=0;exitDy=0;" parent="1" target="UtcH7Sm7z-TrM-39_raR-5" edge="1" source="UtcH7Sm7z-TrM-39_raR-10">
          <mxGeometry x="0.0909" relative="1" as="geometry">
            <mxPoint x="960" y="500" as="sourcePoint" />
            <mxPoint x="950" y="560" as="targetPoint" />
            <mxPoint as="offset" />
          </mxGeometry>
        </mxCell>
        <mxCell id="UtcH7Sm7z-TrM-39_raR-1" value="Выбор изданий" style="ellipse;whiteSpace=wrap;html=1;" parent="1" vertex="1">
          <mxGeometry x="480" y="310" width="120" height="40" as="geometry" />
        </mxCell>
        <mxCell id="UtcH7Sm7z-TrM-39_raR-2" value="" style="endArrow=none;html=1;rounded=0;entryX=0;entryY=0.5;entryDx=0;entryDy=0;" parent="1" target="UtcH7Sm7z-TrM-39_raR-1" edge="1">
          <mxGeometry width="50" height="50" relative="1" as="geometry">
            <mxPoint x="410" y="410" as="sourcePoint" />
            <mxPoint x="540" y="440" as="targetPoint" />
          </mxGeometry>
        </mxCell>
        <mxCell id="UtcH7Sm7z-TrM-39_raR-4" value="Включить" style="endArrow=open;endSize=12;dashed=1;html=1;rounded=0;exitX=1;exitY=0.5;exitDx=0;exitDy=0;entryX=0;entryY=0.5;entryDx=0;entryDy=0;" parent="1" source="UtcH7Sm7z-TrM-39_raR-5" edge="1" target="UtcH7Sm7z-TrM-39_raR-9">
          <mxGeometry width="160" relative="1" as="geometry">
            <mxPoint x="899.9999999999982" y="409.9999999999999" as="sourcePoint" />
            <mxPoint x="960" y="440" as="targetPoint" />
            <mxPoint as="offset" />
          </mxGeometry>
        </mxCell>
        <mxCell id="UtcH7Sm7z-TrM-39_raR-5" value="Оформление подписки" style="ellipse;whiteSpace=wrap;html=1;" parent="1" vertex="1">
          <mxGeometry x="790" y="390" width="120" height="40" as="geometry" />
        </mxCell>
        <mxCell id="UtcH7Sm7z-TrM-39_raR-8" value="" style="endArrow=none;html=1;rounded=0;entryX=0;entryY=0.5;entryDx=0;entryDy=0;" parent="1" target="UtcH7Sm7z-TrM-39_raR-5" edge="1" source="y4jrLxYdIdCdq_8eTDQ_-1">
          <mxGeometry width="50" height="50" relative="1" as="geometry">
            <mxPoint x="820" y="415" as="sourcePoint" />
            <mxPoint x="880" y="405" as="targetPoint" />
          </mxGeometry>
        </mxCell>
        <mxCell id="UtcH7Sm7z-TrM-39_raR-9" value="Подсчет суммы " style="ellipse;whiteSpace=wrap;html=1;" parent="1" vertex="1">
          <mxGeometry x="1000" y="400" width="120" height="40" as="geometry" />
        </mxCell>
        <mxCell id="UtcH7Sm7z-TrM-39_raR-10" value="Регистрация платежа" style="ellipse;whiteSpace=wrap;html=1;" parent="1" vertex="1">
          <mxGeometry x="1010" y="470" width="120" height="40" as="geometry" />
        </mxCell>
        <mxCell id="y4jrLxYdIdCdq_8eTDQ_-2" value="" style="endArrow=none;html=1;rounded=0;entryX=0;entryY=0.5;entryDx=0;entryDy=0;" edge="1" parent="1" source="xvKuvBGbjbTDVPc1FOMu-7" target="y4jrLxYdIdCdq_8eTDQ_-1">
          <mxGeometry width="50" height="50" relative="1" as="geometry">
            <mxPoint x="634" y="421" as="sourcePoint" />
            <mxPoint x="760" y="400" as="targetPoint" />
          </mxGeometry>
        </mxCell>
        <mxCell id="y4jrLxYdIdCdq_8eTDQ_-1" value="include" style="text;html=1;align=center;verticalAlign=middle;whiteSpace=wrap;rounded=0;" vertex="1" parent="1">
          <mxGeometry x="660" y="390" width="60" height="30" as="geometry" />
        </mxCell>
        <mxCell id="y4jrLxYdIdCdq_8eTDQ_-3" value="включить" style="html=1;verticalAlign=bottom;endArrow=open;dashed=1;endSize=8;curved=0;rounded=0;entryX=1;entryY=0.5;entryDx=0;entryDy=0;exitX=0;exitY=0.5;exitDx=0;exitDy=0;" edge="1" parent="1" source="y4jrLxYdIdCdq_8eTDQ_-8" target="y4jrLxYdIdCdq_8eTDQ_-5">
          <mxGeometry x="0.0909" relative="1" as="geometry">
            <mxPoint x="940" y="380" as="sourcePoint" />
            <mxPoint x="930" y="440" as="targetPoint" />
            <mxPoint as="offset" />
          </mxGeometry>
        </mxCell>
        <mxCell id="y4jrLxYdIdCdq_8eTDQ_-4" value="Включить" style="endArrow=open;endSize=12;dashed=1;html=1;rounded=0;exitX=1;exitY=0.5;exitDx=0;exitDy=0;entryX=0;entryY=0.5;entryDx=0;entryDy=0;" edge="1" parent="1" source="y4jrLxYdIdCdq_8eTDQ_-5" target="y4jrLxYdIdCdq_8eTDQ_-7">
          <mxGeometry width="160" relative="1" as="geometry">
            <mxPoint x="879.9999999999982" y="289.9999999999999" as="sourcePoint" />
            <mxPoint x="940" y="320" as="targetPoint" />
            <mxPoint as="offset" />
          </mxGeometry>
        </mxCell>
        <mxCell id="y4jrLxYdIdCdq_8eTDQ_-5" value="Оформление подписки" style="ellipse;whiteSpace=wrap;html=1;" vertex="1" parent="1">
          <mxGeometry x="770" y="270" width="120" height="40" as="geometry" />
        </mxCell>
        <mxCell id="y4jrLxYdIdCdq_8eTDQ_-6" value="" style="endArrow=none;html=1;rounded=0;entryX=0;entryY=0.5;entryDx=0;entryDy=0;exitX=1;exitY=0.5;exitDx=0;exitDy=0;" edge="1" parent="1" source="UtcH7Sm7z-TrM-39_raR-1" target="y4jrLxYdIdCdq_8eTDQ_-5">
          <mxGeometry width="50" height="50" relative="1" as="geometry">
            <mxPoint x="800" y="295" as="sourcePoint" />
            <mxPoint x="860" y="285" as="targetPoint" />
          </mxGeometry>
        </mxCell>
        <mxCell id="y4jrLxYdIdCdq_8eTDQ_-7" value="Подсчет суммы " style="ellipse;whiteSpace=wrap;html=1;" vertex="1" parent="1">
          <mxGeometry x="980" y="280" width="120" height="40" as="geometry" />
        </mxCell>
        <mxCell id="y4jrLxYdIdCdq_8eTDQ_-8" value="Регистрация платежа" style="ellipse;whiteSpace=wrap;html=1;" vertex="1" parent="1">
          <mxGeometry x="990" y="350" width="120" height="40" as="geometry" />
        </mxCell>
        <mxCell id="y4jrLxYdIdCdq_8eTDQ_-9" value="extend" style="text;html=1;align=center;verticalAlign=middle;whiteSpace=wrap;rounded=0;" vertex="1" parent="1">
          <mxGeometry x="640" y="270" width="60" height="30" as="geometry" />
        </mxCell>
      </root>
    </mxGraphModel>
  </diagram>
</mxfile>
